<svg xmlns="http://www.w3.org/2000/svg" viewBox="0 0 64 64" role="img" aria-label="Baumeisterwerk Drache">
  <g fill="#000">
    <!-- Fluegel -->
    <path d="M22 36 L10 12 L20 22 L24 10 L30 22 L36 12 L34 30 Z"/>
    <!-- Koerper, Hals, Kopf, Schwanz -->
    <path d="M4 46
             C 8 42, 14 40, 20 42
             C 26 44, 32 42, 36 38
             C 40 34, 46 30, 52 28
             L 56 22
             L 54 26
             L 60 22
             L 56 28
             L 62 28
             L 54 32
             L 50 34
             C 46 38, 40 42, 32 46
             C 24 50, 14 50, 6 48 Z"/>
    <!-- Schwanzspitze -->
    <path d="M6 48 L2 54 L6 50 L4 56 L8 50 Z"/>
    <!-- Beine -->
    <path d="M18 46 L16 54 L20 50 Z"/>
    <path d="M30 46 L28 54 L32 50 Z"/>
  </g>
</svg>
